<svg width="32" height="32" viewBox="0 0 32 32" fill="none" xmlns="http://www.w3.org/2000/svg">
  <defs>
    <linearGradient id="bg" x1="0%" y1="0%" x2="100%" y2="100%">
      <stop offset="0%" style="stop-color:#f7931a;stop-opacity:1" />
      <stop offset="100%" style="stop-color:#ff9500;stop-opacity:1" />
    </linearGradient>
  </defs>
  
  <!-- Background circle -->
  <circle cx="16" cy="16" r="15" fill="url(#bg)" stroke="#e67e22" stroke-width="1"/>
  
  <!-- BTC Symbol -->
  <path d="M23.189 14.02c.314-2.096-1.283-3.223-3.465-3.975l.708-2.84-1.728-.43-.69 2.765c-.454-.113-.92-.22-1.385-.326l.695-2.783L15.596 6l-.708 2.839c-.376-.086-.745-.17-1.104-.26l.002-.009-2.384-.595-.46 1.846s1.283.328 1.256.347c.7.175.882.638.86 1.102l-.86 3.45c.052.013.12.033.194.064-.064-.016-.133-.035-.207-.054l-1.298 5.208c-.098.245-.346.614-.907.473.021.031-1.256-.314-1.256-.314l-.858 1.978 2.25.561c.418.105.828.215 1.231.318l-.715 2.872 1.727.43.708-2.84c.472.127.93.245 1.378.357l-.702 2.817 1.728.43.715-2.866c2.948.558 5.164.333 6.097-2.333.752-2.146-.037-3.385-2.03-4.192 1.38-.318 2.42-1.222 2.697-3.092zm-3.95 5.538c-.533 2.147-4.148.986-5.32.695l.95-3.805c1.172.293 4.929.872 4.37 3.11zm.535-5.569c-.487 1.953-3.495.96-4.47.717l.86-3.45c.975.243 4.118.696 3.61 2.733z" fill="white"/>
</svg> 